<svg width="32" height="32" viewBox="0 0 32 32" fill="none" xmlns="http://www.w3.org/2000/svg">
<path d="M3.19995 10.6401V23.7601C3.19995 25.5274 4.63264 26.9601 6.39995 26.9601H19.1999M7.99995 7.4401H9.59995L11.84 3.6001H20.1599L22.3999 7.4401H25.5999C27.3673 7.4401 28.7999 8.87279 28.7999 10.6401V23.7601C28.7999 24.9445 28.1564 25.9787 27.1999 26.532M19.5777 19.6001C20.3378 18.7509 20.7999 17.6295 20.7999 16.4001C20.7999 13.7491 18.6509 11.6001 15.9999 11.6001C14.7706 11.6001 13.6492 12.0623 12.7999 12.8223M15.1999 21.1337C13.1236 20.7854 11.4993 19.104 11.237 16.9998M27.9999 28.4001L3.99995 3.6001" stroke="#757575" stroke-width="1.5" stroke-linecap="round" stroke-linejoin="round"/>
</svg>
