<svg width="22" height="22" viewBox="0 0 22 22" fill="none" xmlns="http://www.w3.org/2000/svg">
<path d="M0 20.1999C-6.2108e-05 20.7522 0.447603 21.1999 0.999888 21.2C1.55217 21.2001 1.99994 20.7524 2 20.2001L1 20.2L0 20.1999ZM1.0004 16.5996L2.0004 16.5997L1.0004 16.5996ZM11.2 14C11.7523 14 12.2 13.5523 12.2 13C12.2 12.4477 11.7523 12 11.2 12V13V14ZM20.2 15.2C20.7523 15.2 21.2 14.7523 21.2 14.2C21.2 13.6477 20.7523 13.2 20.2 13.2V14.2V15.2ZM14.8 13.2C14.2477 13.2 13.8 13.6477 13.8 14.2C13.8 14.7523 14.2477 15.2 14.8 15.2V14.2V13.2ZM16.5 16.8999C16.5 17.4521 16.9477 17.8999 17.5 17.8999C18.0523 17.8999 18.5 17.4521 18.5 16.8999H17.5H16.5ZM18.5 11.4999C18.5 10.9476 18.0523 10.4999 17.5 10.4999C16.9477 10.4999 16.5 10.9476 16.5 11.4999H17.5H18.5ZM13 4.6H12C12 6.03594 10.8359 7.2 9.4 7.2V8.2V9.2C11.9405 9.2 14 7.14051 14 4.6H13ZM9.4 8.2V7.2C7.96406 7.2 6.8 6.03594 6.8 4.6H5.8H4.8C4.8 7.14051 6.85949 9.2 9.4 9.2V8.2ZM5.8 4.6H6.8C6.8 3.16406 7.96406 2 9.4 2V1V0C6.85949 0 4.8 2.05949 4.8 4.6H5.8ZM9.4 1V2C10.8359 2 12 3.16406 12 4.6H13H14C14 2.05949 11.9405 0 9.4 0V1ZM1 20.2L2 20.2001L2.0004 16.5997L1.0004 16.5996L0.000404716 16.5995L0 20.1999L1 20.2ZM4.6004 13V12C2.0601 12 0.000690281 14.0592 0.000404716 16.5995L1.0004 16.5996L2.0004 16.5997C2.00057 15.1639 3.16458 14 4.6004 14V13ZM4.6004 13V14H11.2V13V12H4.6004V13ZM20.2 14.2V13.2H17.5V14.2V15.2H20.2V14.2ZM17.5 14.2V13.2H14.8V14.2V15.2H17.5V14.2ZM17.5 16.8999H18.5V14.2H17.5H16.5V16.8999H17.5ZM17.5 14.2H18.5V11.4999H17.5H16.5V14.2H17.5Z" fill="#757575"/>
</svg>
