<svg width="15" height="15" viewBox="0 0 15 15" fill="none" xmlns="http://www.w3.org/2000/svg">
<path d="M14.25 12.75C14.25 13.5784 13.5876 14.25 12.7705 14.25L2.22945 14.25C1.41237 14.25 0.75 13.5784 0.75 12.75L0.75 10.5C0.75 9.67157 1.41237 9 2.22945 9L12.7705 9C13.5876 9 14.25 9.67157 14.25 10.5V12.75Z" stroke="#757575" stroke-width="1.5" stroke-linecap="round" stroke-linejoin="round"/>
<path d="M14.25 2.25C14.25 1.42157 13.5876 0.75 12.7705 0.75L2.22945 0.75C1.41237 0.75 0.75 1.42157 0.75 2.25L0.75 4.5C0.75 5.32843 1.41237 6 2.22945 6H12.7705C13.5876 6 14.25 5.32843 14.25 4.5V2.25Z" stroke="#757575" stroke-width="1.5" stroke-linecap="round" stroke-linejoin="round"/>
</svg>
