<svg width="16" height="20" viewBox="0 0 16 20" fill="none" xmlns="http://www.w3.org/2000/svg">
<path fill-rule="evenodd" clip-rule="evenodd" d="M3.05726 0H10.0133L16 5.9162V17.0924C16 17.9001 15.6591 18.6169 15.1052 19.1418C14.5513 19.6668 13.7843 20 12.9321 20V19.9899H3.05726V20C2.21571 20 1.44873 19.6668 0.894807 19.1418C0.340879 18.6169 0 17.9001 0 17.0924V2.89753C0 2.09995 0.340879 1.37304 0.894807 0.848057C1.44873 0.323069 2.21571 0 3.05726 0ZM9.57656 0.807673V5.29985C9.57656 5.85213 10.0243 6.29985 10.5766 6.29985H15.1372V17.0924C15.1372 17.6678 14.8921 18.1928 14.498 18.5765C14.0932 18.95 13.5393 19.1822 12.9321 19.1822H3.05726C2.45007 19.1822 1.89614 18.95 1.502 18.5765C1.10786 18.1928 0.852197 17.6678 0.852197 17.0924V2.89753C0.852197 2.32206 1.10786 1.79707 1.502 1.42352C1.89614 1.04997 2.45007 0.807673 3.05726 0.807673H9.57656Z" fill="#282828"/>
</svg>
