<svg width="16" height="16" viewBox="0 0 16 16" fill="none" xmlns="http://www.w3.org/2000/svg">
<path d="M13.1944 0.75C14.0536 0.75 14.75 1.4369 14.75 2.28424L14.75 4.90327C14.75 5.75061 14.0536 6.43752 13.1944 6.43752H10.8611C10.002 6.43752 9.30556 5.75061 9.30556 4.90327L9.30555 2.28424C9.30555 1.4369 10.002 0.75 10.8611 0.75L13.1944 0.75Z" stroke="#757575" stroke-width="1.5" stroke-linecap="round" stroke-linejoin="round"/>
<path d="M2.30555 0.75C1.44644 0.75 0.749999 1.4369 0.749999 2.28424L0.750007 4.90327C0.750007 5.75061 1.44645 6.43752 2.30556 6.43752H4.63889C5.498 6.43752 6.19445 5.75061 6.19445 4.90327L6.19444 2.28424C6.19444 1.4369 5.498 0.75 4.63889 0.75L2.30555 0.75Z" stroke="#757575" stroke-width="1.5" stroke-linecap="round" stroke-linejoin="round"/>
<path d="M13.1945 9.06251C14.0536 9.06251 14.75 9.74941 14.75 10.5968V13.2158C14.75 14.0631 14.0536 14.75 13.1945 14.75H10.8611C10.002 14.75 9.30556 14.0631 9.30556 13.2158L9.30556 10.5968C9.30556 9.74941 10.002 9.06251 10.8611 9.06251H13.1945Z" stroke="#757575" stroke-width="1.5" stroke-linecap="round" stroke-linejoin="round"/>
<path d="M2.30556 9.06251C1.44645 9.06251 0.750006 9.74941 0.750006 10.5968L0.750008 13.2158C0.750008 14.0631 1.44645 14.75 2.30556 14.75H4.6389C5.49801 14.75 6.19445 14.0631 6.19445 13.2158L6.19445 10.5968C6.19445 9.74941 5.498 9.06251 4.63889 9.06251H2.30556Z" stroke="#757575" stroke-width="1.5" stroke-linecap="round" stroke-linejoin="round"/>
</svg>
