<svg width="119" height="77" viewBox="0 0 119 77" fill="none" xmlns="http://www.w3.org/2000/svg">
<path d="M0 76.5V43.1053L43.3421 0H97.5789V10.4211L108 0H118.895V33.6316L76.0263 76.5H64.8947V65.6053L54 76.5H0Z" fill="#282828"/>
<path d="M23.9652 53.2658H31.3035V72.7342H26.0316V61.1063L19.8855 72.7176L19.8987 72.7342H14.4049L14.4181 72.7176L8.28525 61.1063V72.7342H3.00012V53.2658H10.3384L17.0376 67.0532L23.9652 53.2658Z" fill="white"/>
<path d="M42.7545 58.299C42.2335 58.299 41.708 58.3267 41.1782 58.3821C40.6484 58.4264 40.1362 58.515 39.6417 58.6478C39.156 58.7697 38.6968 58.9413 38.2641 59.1628C37.8402 59.3843 37.4649 59.6667 37.1382 60.01C36.8203 60.3533 36.5642 60.7741 36.3699 61.2724C36.1845 61.7597 36.0874 62.3355 36.0785 63C36.0962 63.742 36.2154 64.3732 36.4362 64.8937C36.6658 65.4142 36.966 65.8516 37.3369 66.206C37.7078 66.5493 38.1316 66.8206 38.6085 67.0199C39.0853 67.2193 39.5799 67.3688 40.092 67.4684C40.6042 67.5681 41.1164 67.6346 41.6286 67.6678C42.1407 67.6899 42.6176 67.701 43.0591 67.701C43.2622 67.701 43.5536 67.701 43.9334 67.701C44.3131 67.6899 44.7458 67.6678 45.2315 67.6346C45.726 67.6013 46.2558 67.557 46.821 67.5017C47.395 67.4463 47.9778 67.3743 48.5694 67.2857C49.1699 67.186 49.7616 67.0642 50.3444 66.9203C50.936 66.7652 51.4879 66.588 52.0001 66.3887V71.5714C50.5166 72.1141 49.0021 72.4961 47.4568 72.7176C45.9114 72.928 44.344 73.0166 42.7545 72.9834C42.6043 72.9834 42.4586 72.9834 42.3174 72.9834C42.1849 72.9945 42.0436 73 41.8935 73C40.9928 73 40.092 72.9502 39.1913 72.8505C38.2906 72.7619 37.4296 72.5903 36.6084 72.3355C35.7871 72.0698 35.0188 71.7099 34.3036 71.2558C33.5971 70.7907 32.979 70.1872 32.4491 69.4452C31.9281 68.7032 31.5175 67.8062 31.2173 66.7542C30.9259 65.7021 30.7802 64.4563 30.7802 63.0166V63C30.7802 61.5493 30.9303 60.2979 31.2305 59.2458C31.5308 58.1827 31.9414 57.2802 32.4624 56.5382C32.9922 55.7962 33.6148 55.1982 34.3301 54.7442C35.0542 54.2791 35.8268 53.9192 36.6481 53.6645C37.4782 53.3987 38.348 53.2215 39.2575 53.1329C40.1671 53.0443 41.0722 53 41.973 53C42.8472 53 43.6993 53.0166 44.5294 53.0498C45.3683 53.0831 46.1984 53.1495 47.0197 53.2492C47.8409 53.3488 48.6622 53.4928 49.4834 53.6811C50.3046 53.8693 51.1436 54.1185 52.0001 54.4286V59.6279C51.5498 59.4507 51.0729 59.2957 50.5696 59.1628C50.0662 59.0299 49.554 58.9192 49.033 58.8306C48.5209 58.7309 48.0087 58.6478 47.4965 58.5814C46.9843 58.515 46.4942 58.4651 46.0262 58.4319C44.9312 58.3433 43.8406 58.299 42.7545 58.299Z" fill="white"/>
</svg>
