<svg width="497" height="77" viewBox="0 0 497 77" fill="none" xmlns="http://www.w3.org/2000/svg">
<path d="M0 76.5V43.1053L43.3421 0H97.5789V10.4211L108 0H118.895V33.6316L76.0263 76.5H64.8947V65.6053L54 76.5H0Z" fill="#282828"/>
<path d="M23.9652 53.2658H31.3035V72.7342H26.0316V61.1063L19.8855 72.7176L19.8987 72.7342H14.4049L14.4181 72.7176L8.28525 61.1063V72.7342H3.00012V53.2658H10.3384L17.0376 67.0532L23.9652 53.2658Z" fill="white"/>
<path d="M42.7545 58.299C42.2335 58.299 41.708 58.3267 41.1782 58.3821C40.6484 58.4264 40.1362 58.515 39.6417 58.6478C39.156 58.7697 38.6968 58.9413 38.2641 59.1628C37.8402 59.3843 37.4649 59.6667 37.1382 60.01C36.8203 60.3533 36.5642 60.7741 36.3699 61.2724C36.1845 61.7597 36.0874 62.3355 36.0785 63C36.0962 63.742 36.2154 64.3732 36.4362 64.8937C36.6658 65.4142 36.966 65.8516 37.3369 66.206C37.7078 66.5493 38.1316 66.8206 38.6085 67.0199C39.0853 67.2193 39.5799 67.3688 40.092 67.4684C40.6042 67.5681 41.1164 67.6346 41.6286 67.6678C42.1407 67.6899 42.6176 67.701 43.0591 67.701C43.2622 67.701 43.5536 67.701 43.9334 67.701C44.3131 67.6899 44.7458 67.6678 45.2315 67.6346C45.726 67.6013 46.2558 67.557 46.821 67.5017C47.395 67.4463 47.9778 67.3743 48.5694 67.2857C49.1699 67.186 49.7616 67.0642 50.3444 66.9203C50.936 66.7652 51.4879 66.588 52.0001 66.3887V71.5714C50.5166 72.1141 49.0021 72.4961 47.4568 72.7176C45.9114 72.928 44.344 73.0166 42.7545 72.9834C42.6043 72.9834 42.4586 72.9834 42.3174 72.9834C42.1849 72.9945 42.0436 73 41.8935 73C40.9928 73 40.092 72.9502 39.1913 72.8505C38.2906 72.7619 37.4296 72.5903 36.6084 72.3355C35.7871 72.0698 35.0188 71.7099 34.3036 71.2558C33.5971 70.7907 32.979 70.1872 32.4491 69.4452C31.9281 68.7032 31.5175 67.8062 31.2173 66.7542C30.9259 65.7021 30.7802 64.4563 30.7802 63.0166V63C30.7802 61.5493 30.9303 60.2979 31.2305 59.2458C31.5308 58.1827 31.9414 57.2802 32.4624 56.5382C32.9922 55.7962 33.6148 55.1982 34.3301 54.7442C35.0542 54.2791 35.8268 53.9192 36.6481 53.6645C37.4782 53.3987 38.348 53.2215 39.2575 53.1329C40.1671 53.0443 41.0722 53 41.973 53C42.8472 53 43.6993 53.0166 44.5294 53.0498C45.3683 53.0831 46.1984 53.1495 47.0197 53.2492C47.8409 53.3488 48.6622 53.4928 49.4834 53.6811C50.3046 53.8693 51.1436 54.1185 52.0001 54.4286V59.6279C51.5498 59.4507 51.0729 59.2957 50.5696 59.1628C50.0662 59.0299 49.554 58.9192 49.033 58.8306C48.5209 58.7309 48.0087 58.6478 47.4965 58.5814C46.9843 58.515 46.4942 58.4651 46.0262 58.4319C44.9312 58.3433 43.8406 58.299 42.7545 58.299Z" fill="white"/>
<line x1="142.895" y1="18.75" x2="142.895" y2="57.75" stroke="#282828" stroke-width="2"/>
<path d="M181.325 37.35V34.25H167.049V17.51H169.808V31.6305H178.008V17.51H180.767V31.739H184.084V37.35H181.325ZM199.953 17.51V34.25H197.287V21.912L188.514 34.25H186.235V17.51H188.901V29.6775L197.69 17.51H199.953ZM211.889 41.225V34.56C210.256 34.8183 208.768 34.6427 207.425 34.033C206.092 33.413 205.028 32.4158 204.232 31.0415C203.447 29.6568 203.054 27.9415 203.054 25.8955C203.054 23.8392 203.447 22.1187 204.232 20.734C205.028 19.3493 206.092 18.3522 207.425 17.7425C208.768 17.1225 210.256 16.9417 211.889 17.2V12.1005H214.4V17.2C216.033 16.9417 217.515 17.1225 218.848 17.7425C220.192 18.3522 221.256 19.3493 222.041 20.734C222.837 22.1187 223.235 23.8392 223.235 25.8955C223.235 27.9415 222.837 29.6568 222.041 31.0415C221.256 32.4158 220.192 33.413 218.848 34.033C217.515 34.6427 216.033 34.8183 214.4 34.56V41.225H211.889ZM211.889 32.0335V19.742C211.052 19.5973 210.272 19.6232 209.548 19.8195C208.825 20.0055 208.19 20.3568 207.642 20.8735C207.094 21.3902 206.665 22.067 206.355 22.904C206.045 23.741 205.89 24.7382 205.89 25.8955C205.89 27.0425 206.045 28.0345 206.355 28.8715C206.676 29.7085 207.11 30.3853 207.657 30.902C208.215 31.4083 208.856 31.7597 209.579 31.956C210.303 32.142 211.073 32.1678 211.889 32.0335ZM214.4 32.0335C215.216 32.1678 215.986 32.142 216.709 31.956C217.433 31.77 218.073 31.4238 218.631 30.9175C219.189 30.4008 219.623 29.724 219.933 28.887C220.243 28.05 220.398 27.0528 220.398 25.8955C220.398 24.7278 220.243 23.7255 219.933 22.8885C219.634 22.0515 219.21 21.3747 218.662 20.858C218.115 20.3413 217.474 19.99 216.74 19.804C216.017 19.618 215.237 19.5973 214.4 19.742V32.0335ZM234.037 34.715C232.466 34.715 231.143 34.3275 230.069 33.5525C228.994 32.7672 228.178 31.708 227.62 30.375C227.072 29.0317 226.798 27.5282 226.798 25.8645C226.798 24.1802 227.072 22.6715 227.62 21.3385C228.178 20.0055 228.994 18.9567 230.069 18.192C231.154 17.4273 232.482 17.045 234.052 17.045C235.602 17.045 236.935 17.4325 238.051 18.2075C239.178 18.9722 240.04 20.021 240.64 21.354C241.239 22.687 241.539 24.1905 241.539 25.8645C241.539 27.5385 241.239 29.042 240.64 30.375C240.04 31.708 239.178 32.7672 238.051 33.5525C236.935 34.3275 235.597 34.715 234.037 34.715ZM226.333 41.69V17.51H228.798V29.8325H229.108V41.69H226.333ZM233.696 32.1885C234.801 32.1885 235.716 31.9095 236.439 31.3515C237.163 30.7935 237.705 30.0392 238.067 29.0885C238.428 28.1275 238.609 27.0528 238.609 25.8645C238.609 24.6865 238.428 23.6222 238.067 22.6715C237.715 21.7208 237.168 20.9665 236.424 20.4085C235.69 19.8505 234.755 19.5715 233.618 19.5715C232.533 19.5715 231.634 19.8402 230.921 20.3775C230.208 20.9045 229.676 21.6433 229.325 22.594C228.973 23.5343 228.798 24.6245 228.798 25.8645C228.798 27.0838 228.968 28.174 229.309 29.135C229.661 30.0857 230.198 30.8348 230.921 31.3825C231.645 31.9198 232.569 32.1885 233.696 32.1885ZM251.757 34.715C250.093 34.715 248.657 34.3378 247.448 33.5835C246.249 32.8292 245.324 31.7855 244.673 30.4525C244.022 29.1195 243.697 27.5902 243.697 25.8645C243.697 24.1078 244.027 22.5682 244.689 21.2455C245.35 19.9228 246.285 18.8947 247.494 18.161C248.703 17.417 250.124 17.045 251.757 17.045C253.431 17.045 254.872 17.4222 256.081 18.1765C257.29 18.9205 258.215 19.959 258.856 21.292C259.507 22.6147 259.832 24.1388 259.832 25.8645C259.832 27.6108 259.507 29.1505 258.856 30.4835C258.205 31.8062 257.275 32.8447 256.066 33.599C254.857 34.343 253.42 34.715 251.757 34.715ZM251.757 32.0955C253.493 32.0955 254.784 31.5168 255.632 30.3595C256.479 29.2022 256.903 27.7038 256.903 25.8645C256.903 23.9735 256.474 22.47 255.616 21.354C254.758 20.2277 253.472 19.6645 251.757 19.6645C250.589 19.6645 249.628 19.928 248.874 20.455C248.119 20.982 247.556 21.7105 247.184 22.6405C246.812 23.5705 246.626 24.6452 246.626 25.8645C246.626 27.7452 247.06 29.2538 247.928 30.3905C248.796 31.5272 250.072 32.0955 251.757 32.0955ZM262.919 34.25V17.51H270.049C270.473 17.51 270.928 17.5358 271.413 17.5875C271.909 17.6288 272.359 17.7063 272.762 17.82C273.661 18.0577 274.4 18.5485 274.978 19.2925C275.567 20.0262 275.862 20.9562 275.862 22.0825C275.862 22.7128 275.764 23.2605 275.567 23.7255C275.381 24.1905 275.113 24.5935 274.761 24.9345C274.606 25.0895 274.436 25.229 274.25 25.353C274.064 25.477 273.878 25.5752 273.692 25.6475C274.053 25.7095 274.42 25.849 274.792 26.066C275.381 26.3863 275.841 26.8358 276.172 27.4145C276.513 27.9932 276.683 28.732 276.683 29.631C276.683 30.7677 276.409 31.708 275.862 32.452C275.314 33.1857 274.56 33.692 273.599 33.971C273.196 34.0847 272.751 34.1622 272.266 34.2035C271.78 34.2345 271.31 34.25 270.855 34.25H262.919ZM265.709 32.0025H270.7C270.917 32.0025 271.176 31.9818 271.475 31.9405C271.785 31.8992 272.059 31.8475 272.297 31.7855C272.834 31.6305 273.222 31.3412 273.459 30.9175C273.707 30.4938 273.831 30.034 273.831 29.538C273.831 28.8767 273.645 28.3393 273.273 27.926C272.912 27.5127 272.431 27.2543 271.832 27.151C271.615 27.089 271.377 27.0528 271.119 27.0425C270.871 27.0322 270.649 27.027 270.452 27.027H265.709V32.0025ZM265.709 24.7485H269.863C270.153 24.7485 270.457 24.733 270.778 24.702C271.098 24.6607 271.377 24.5935 271.615 24.5005C272.09 24.3248 272.436 24.0355 272.653 23.6325C272.881 23.2192 272.994 22.7697 272.994 22.284C272.994 21.7467 272.87 21.2765 272.622 20.8735C272.385 20.4602 272.018 20.176 271.522 20.021C271.191 19.897 270.819 19.8298 270.406 19.8195C270.003 19.7988 269.744 19.7885 269.631 19.7885H265.709V24.7485ZM286.617 34.715C284.953 34.715 283.517 34.3378 282.308 33.5835C281.109 32.8292 280.185 31.7855 279.534 30.4525C278.883 29.1195 278.557 27.5902 278.557 25.8645C278.557 24.1078 278.888 22.5682 279.549 21.2455C280.21 19.9228 281.146 18.8947 282.355 18.161C283.564 17.417 284.984 17.045 286.617 17.045C288.291 17.045 289.733 17.4222 290.942 18.1765C292.151 18.9205 293.075 19.959 293.716 21.292C294.367 22.6147 294.693 24.1388 294.693 25.8645C294.693 27.6108 294.367 29.1505 293.716 30.4835C293.065 31.8062 292.135 32.8447 290.926 33.599C289.717 34.343 288.281 34.715 286.617 34.715ZM286.617 32.0955C288.353 32.0955 289.645 31.5168 290.492 30.3595C291.339 29.2022 291.763 27.7038 291.763 25.8645C291.763 23.9735 291.334 22.47 290.477 21.354C289.619 20.2277 288.332 19.6645 286.617 19.6645C285.449 19.6645 284.488 19.928 283.734 20.455C282.98 20.982 282.417 21.7105 282.045 22.6405C281.673 23.5705 281.487 24.6452 281.487 25.8645C281.487 27.7452 281.921 29.2538 282.789 30.3905C283.657 31.5272 284.933 32.0955 286.617 32.0955ZM305.003 15.557C304.228 15.557 303.52 15.3658 302.879 14.9835C302.239 14.6012 301.727 14.0948 301.345 13.4645C300.962 12.8238 300.771 12.1108 300.771 11.3255H303.003C303.003 11.8732 303.2 12.3433 303.592 12.736C303.985 13.1287 304.455 13.325 305.003 13.325C305.561 13.325 306.031 13.1287 306.413 12.736C306.806 12.3433 307.002 11.8732 307.002 11.3255H309.234C309.234 12.1108 309.043 12.8238 308.661 13.4645C308.289 14.0948 307.777 14.6012 307.126 14.9835C306.486 15.3658 305.778 15.557 305.003 15.557ZM311.497 17.51V34.25H308.831V21.912L300.058 34.25H297.78V17.51H300.446V29.6775L309.234 17.51H311.497ZM328.477 34.715C326.782 34.715 325.341 34.3378 324.152 33.5835C322.974 32.8188 322.075 31.77 321.455 30.437C320.835 29.104 320.515 27.585 320.494 25.88C320.515 24.1337 320.84 22.5992 321.471 21.2765C322.111 19.9435 323.026 18.905 324.214 18.161C325.403 17.417 326.834 17.045 328.508 17.045C330.275 17.045 331.794 17.479 333.065 18.347C334.346 19.215 335.204 20.4033 335.638 21.912L332.91 22.7335C332.558 21.7622 331.985 21.0078 331.189 20.4705C330.404 19.9332 329.5 19.6645 328.477 19.6645C327.33 19.6645 326.384 19.9332 325.64 20.4705C324.896 20.9975 324.343 21.7312 323.982 22.6715C323.62 23.6015 323.434 24.671 323.424 25.88C323.444 27.74 323.873 29.2435 324.71 30.3905C325.558 31.5272 326.813 32.0955 328.477 32.0955C329.572 32.0955 330.481 31.8475 331.205 31.3515C331.928 30.8452 332.476 30.1167 332.848 29.166L335.638 29.8945C335.059 31.4548 334.155 32.6483 332.925 33.475C331.696 34.3017 330.213 34.715 328.477 34.715ZM345.745 34.715C344.102 34.715 342.666 34.3533 341.436 33.63C340.217 32.8963 339.266 31.8785 338.584 30.5765C337.902 29.2642 337.561 27.7348 337.561 25.9885C337.561 24.1595 337.897 22.5785 338.569 21.2455C339.24 19.9022 340.176 18.8688 341.374 18.1455C342.583 17.4118 343.999 17.045 345.621 17.045C347.306 17.045 348.737 17.4325 349.915 18.2075C351.103 18.9825 351.992 20.0882 352.581 21.5245C353.18 22.9608 353.438 24.671 353.356 26.655H350.566V25.663C350.535 23.6067 350.116 22.0722 349.31 21.0595C348.504 20.0365 347.306 19.525 345.714 19.525C344.009 19.525 342.712 20.0727 341.824 21.168C340.935 22.2633 340.491 23.834 340.491 25.88C340.491 27.8537 340.935 29.383 341.824 30.468C342.712 31.553 343.978 32.0955 345.621 32.0955C346.727 32.0955 347.688 31.8423 348.504 31.336C349.321 30.8297 349.961 30.1012 350.426 29.1505L353.077 30.065C352.426 31.5427 351.444 32.6897 350.132 33.506C348.83 34.312 347.368 34.715 345.745 34.715ZM339.561 26.655V24.4385H351.93V26.655H339.561ZM364.185 34.715C362.614 34.715 361.291 34.3275 360.217 33.5525C359.142 32.7672 358.326 31.708 357.768 30.375C357.22 29.0317 356.946 27.5282 356.946 25.8645C356.946 24.1802 357.22 22.6715 357.768 21.3385C358.326 20.0055 359.142 18.9567 360.217 18.192C361.302 17.4273 362.63 17.045 364.2 17.045C365.75 17.045 367.083 17.4325 368.199 18.2075C369.326 18.9722 370.188 20.021 370.788 21.354C371.387 22.687 371.687 24.1905 371.687 25.8645C371.687 27.5385 371.387 29.042 370.788 30.375C370.188 31.708 369.326 32.7672 368.199 33.5525C367.083 34.3275 365.745 34.715 364.185 34.715ZM356.481 41.69V17.51H358.946V29.8325H359.256V41.69H356.481ZM363.844 32.1885C364.949 32.1885 365.864 31.9095 366.587 31.3515C367.311 30.7935 367.853 30.0392 368.215 29.0885C368.576 28.1275 368.757 27.0528 368.757 25.8645C368.757 24.6865 368.576 23.6222 368.215 22.6715C367.863 21.7208 367.316 20.9665 366.572 20.4085C365.838 19.8505 364.903 19.5715 363.766 19.5715C362.681 19.5715 361.782 19.8402 361.069 20.3775C360.356 20.9045 359.824 21.6433 359.473 22.594C359.121 23.5343 358.946 24.6245 358.946 25.8645C358.946 27.0838 359.116 28.174 359.457 29.135C359.809 30.0857 360.346 30.8348 361.069 31.3825C361.793 31.9198 362.717 32.1885 363.844 32.1885ZM374.759 34.25V17.51H381.889C382.313 17.51 382.767 17.5358 383.253 17.5875C383.749 17.6288 384.199 17.7063 384.602 17.82C385.501 18.0577 386.239 18.5485 386.818 19.2925C387.407 20.0262 387.702 20.9562 387.702 22.0825C387.702 22.7128 387.603 23.2605 387.407 23.7255C387.221 24.1905 386.952 24.5935 386.601 24.9345C386.446 25.0895 386.276 25.229 386.09 25.353C385.904 25.477 385.718 25.5752 385.532 25.6475C385.893 25.7095 386.26 25.849 386.632 26.066C387.221 26.3863 387.681 26.8358 388.012 27.4145C388.353 27.9932 388.523 28.732 388.523 29.631C388.523 30.7677 388.249 31.708 387.702 32.452C387.154 33.1857 386.4 33.692 385.439 33.971C385.036 34.0847 384.591 34.1622 384.106 34.2035C383.62 34.2345 383.15 34.25 382.695 34.25H374.759ZM377.549 32.0025H382.54C382.757 32.0025 383.015 31.9818 383.315 31.9405C383.625 31.8992 383.899 31.8475 384.137 31.7855C384.674 31.6305 385.061 31.3412 385.299 30.9175C385.547 30.4938 385.671 30.034 385.671 29.538C385.671 28.8767 385.485 28.3393 385.113 27.926C384.751 27.5127 384.271 27.2543 383.672 27.151C383.455 27.089 383.217 27.0528 382.959 27.0425C382.711 27.0322 382.488 27.027 382.292 27.027H377.549V32.0025ZM377.549 24.7485H381.703C381.992 24.7485 382.297 24.733 382.618 24.702C382.938 24.6607 383.217 24.5935 383.455 24.5005C383.93 24.3248 384.276 24.0355 384.493 23.6325C384.72 23.2192 384.834 22.7697 384.834 22.284C384.834 21.7467 384.71 21.2765 384.462 20.8735C384.224 20.4602 383.858 20.176 383.362 20.021C383.031 19.897 382.659 19.8298 382.246 19.8195C381.843 19.7988 381.584 19.7885 381.471 19.7885H377.549V24.7485ZM405.029 17.51V34.25H402.363V21.912L393.59 34.25H391.311V17.51H393.977V29.6775L402.766 17.51H405.029ZM416.112 34.715C414.418 34.715 412.976 34.3378 411.788 33.5835C410.61 32.8188 409.711 31.77 409.091 30.437C408.471 29.104 408.151 27.585 408.13 25.88C408.151 24.1337 408.476 22.5992 409.106 21.2765C409.747 19.9435 410.662 18.905 411.85 18.161C413.038 17.417 414.469 17.045 416.143 17.045C417.91 17.045 419.429 17.479 420.7 18.347C421.982 19.215 422.839 20.4033 423.273 21.912L420.545 22.7335C420.194 21.7622 419.621 21.0078 418.825 20.4705C418.04 19.9332 417.135 19.6645 416.112 19.6645C414.965 19.6645 414.02 19.9332 413.276 20.4705C412.532 20.9975 411.979 21.7312 411.617 22.6715C411.256 23.6015 411.07 24.671 411.059 25.88C411.08 27.74 411.509 29.2435 412.346 30.3905C413.193 31.5272 414.449 32.0955 416.112 32.0955C417.208 32.0955 418.117 31.8475 418.84 31.3515C419.564 30.8452 420.111 30.1167 420.483 29.166L423.273 29.8945C422.695 31.4548 421.791 32.6483 420.561 33.475C419.331 34.3017 417.848 34.715 416.112 34.715ZM173.063 65.715C171.41 65.715 169.948 65.3585 168.677 64.6455C167.406 63.9222 166.404 62.9302 165.67 61.6695L167.871 60.2435C168.481 61.1632 169.209 61.871 170.056 62.367C170.904 62.8527 171.87 63.0955 172.955 63.0955C174.092 63.0955 174.996 62.8372 175.667 62.3205C176.339 61.7935 176.675 61.0857 176.675 60.197C176.675 59.5357 176.51 59.0293 176.179 58.678C175.848 58.3267 175.373 58.0838 174.753 57.9495C174.133 57.8152 173.394 57.748 172.536 57.748H170.8V55.4695H172.521C173.606 55.4695 174.489 55.2938 175.171 54.9425C175.853 54.5912 176.194 53.9918 176.194 53.1445C176.194 52.2765 175.874 51.6462 175.233 51.2535C174.603 50.8505 173.849 50.649 172.97 50.649C172.04 50.649 171.152 50.8453 170.304 51.238C169.457 51.6203 168.729 52.106 168.119 52.695L166.445 50.8195C167.313 49.9308 168.31 49.2488 169.436 48.7735C170.573 48.2878 171.808 48.045 173.141 48.045C174.216 48.045 175.197 48.2362 176.086 48.6185C176.985 48.9905 177.698 49.5433 178.225 50.277C178.762 51.0003 179.031 51.8838 179.031 52.9275C179.031 53.8162 178.824 54.6067 178.411 55.299C177.998 55.9913 177.388 56.5958 176.582 57.1125L176.473 56.136C177.155 56.3013 177.719 56.6062 178.163 57.0505C178.618 57.4845 178.953 58.0012 179.17 58.6005C179.387 59.1998 179.496 59.825 179.496 60.476C179.496 61.5713 179.207 62.5117 178.628 63.297C178.06 64.072 177.29 64.6713 176.318 65.095C175.347 65.5083 174.262 65.715 173.063 65.715ZM187.346 65.715C186.096 65.715 185.047 65.4877 184.2 65.033C183.363 64.568 182.727 63.9583 182.293 63.204C181.87 62.4497 181.658 61.623 181.658 60.724C181.658 59.8457 181.823 59.0862 182.154 58.4455C182.495 57.7945 182.97 57.2572 183.58 56.8335C184.19 56.3995 184.918 56.0585 185.765 55.8105C186.561 55.5935 187.45 55.4075 188.431 55.2525C189.423 55.0872 190.426 54.9373 191.438 54.803C192.451 54.6687 193.397 54.5395 194.275 54.4155L193.283 54.989C193.314 53.501 193.014 52.4005 192.384 51.6875C191.764 50.9745 190.689 50.618 189.16 50.618C188.147 50.618 187.259 50.8505 186.494 51.3155C185.74 51.7702 185.207 52.5142 184.897 53.5475L182.278 52.757C182.681 51.2897 183.461 50.1375 184.618 49.3005C185.776 48.4635 187.3 48.045 189.191 48.045C190.71 48.045 192.012 48.3188 193.097 48.8665C194.192 49.4038 194.978 50.2202 195.453 51.3155C195.691 51.8322 195.84 52.3953 195.902 53.005C195.964 53.6043 195.995 54.2347 195.995 54.896V65.25H193.546V61.2355L194.12 61.6075C193.49 62.9612 192.606 63.9842 191.469 64.6765C190.343 65.3688 188.969 65.715 187.346 65.715ZM187.765 63.4055C188.757 63.4055 189.615 63.2298 190.338 62.8785C191.072 62.5168 191.661 62.0467 192.105 61.468C192.549 60.879 192.839 60.2383 192.973 59.546C193.128 59.0293 193.211 58.4558 193.221 57.8255C193.242 57.1848 193.252 56.694 193.252 56.353L194.213 56.7715C193.314 56.8955 192.43 57.0143 191.562 57.128C190.694 57.2417 189.873 57.3657 189.098 57.5C188.323 57.624 187.625 57.7738 187.005 57.9495C186.551 58.0942 186.122 58.2802 185.719 58.5075C185.326 58.7348 185.006 59.0293 184.758 59.391C184.52 59.7423 184.401 60.1815 184.401 60.7085C184.401 61.1632 184.515 61.5972 184.742 62.0105C184.98 62.4238 185.342 62.7597 185.827 63.018C186.323 63.2763 186.969 63.4055 187.765 63.4055ZM199.7 65.25L199.715 48.51H202.505V56.57L209.527 48.51H213.107L205.714 56.88L213.975 65.25H210.116L202.505 57.19V65.25H199.7ZM217.533 72.69L220.773 63.886L220.819 66.49L213.503 48.51H216.402L222.137 62.9715H221.145L226.523 48.51H229.329L220.215 72.69H217.533ZM231.563 65.25V48.51H245.281V65.25H242.522V51.1295H234.322V65.25H231.563ZM256.442 65.715C254.778 65.715 253.342 65.3378 252.133 64.5835C250.934 63.8292 250.009 62.7855 249.358 61.4525C248.707 60.1195 248.382 58.5902 248.382 56.8645C248.382 55.1078 248.712 53.5682 249.374 52.2455C250.035 50.9228 250.97 49.8947 252.179 49.161C253.388 48.417 254.809 48.045 256.442 48.045C258.116 48.045 259.557 48.4222 260.766 49.1765C261.975 49.9205 262.9 50.959 263.541 52.292C264.192 53.6147 264.517 55.1388 264.517 56.8645C264.517 58.6108 264.192 60.1505 263.541 61.4835C262.89 62.8062 261.96 63.8447 260.751 64.599C259.542 65.343 258.105 65.715 256.442 65.715ZM256.442 63.0955C258.178 63.0955 259.469 62.5168 260.317 61.3595C261.164 60.2022 261.588 58.7038 261.588 56.8645C261.588 54.9735 261.159 53.47 260.301 52.354C259.444 51.2277 258.157 50.6645 256.442 50.6645C255.274 50.6645 254.313 50.928 253.559 51.455C252.804 51.982 252.241 52.7105 251.869 53.6405C251.497 54.5705 251.311 55.6452 251.311 56.8645C251.311 58.7452 251.745 60.2538 252.613 61.3905C253.481 62.5272 254.757 63.0955 256.442 63.0955ZM267.604 65.25L267.62 48.51H270.41V56.57L277.431 48.51H281.012L273.618 56.88L281.88 65.25H278.02L270.41 57.19V65.25H267.604ZM302.711 48.51V65.25H300.045V52.912L291.272 65.25H288.993V48.51H291.659V60.6775L300.448 48.51H302.711ZM317.396 65.715C316.146 65.715 315.097 65.4877 314.25 65.033C313.413 64.568 312.777 63.9583 312.343 63.204C311.92 62.4497 311.708 61.623 311.708 60.724C311.708 59.8457 311.873 59.0862 312.204 58.4455C312.545 57.7945 313.02 57.2572 313.63 56.8335C314.239 56.3995 314.968 56.0585 315.815 55.8105C316.611 55.5935 317.5 55.4075 318.481 55.2525C319.473 55.0872 320.476 54.9373 321.488 54.803C322.501 54.6687 323.446 54.5395 324.325 54.4155L323.333 54.989C323.364 53.501 323.064 52.4005 322.434 51.6875C321.814 50.9745 320.739 50.618 319.21 50.618C318.197 50.618 317.308 50.8505 316.544 51.3155C315.789 51.7702 315.257 52.5142 314.947 53.5475L312.328 52.757C312.731 51.2897 313.511 50.1375 314.668 49.3005C315.826 48.4635 317.35 48.045 319.241 48.045C320.76 48.045 322.062 48.3188 323.147 48.8665C324.242 49.4038 325.027 50.2202 325.503 51.3155C325.74 51.8322 325.89 52.3953 325.952 53.005C326.014 53.6043 326.045 54.2347 326.045 54.896V65.25H323.596V61.2355L324.17 61.6075C323.539 62.9612 322.656 63.9842 321.519 64.6765C320.393 65.3688 319.019 65.715 317.396 65.715ZM317.815 63.4055C318.807 63.4055 319.664 63.2298 320.388 62.8785C321.121 62.5168 321.71 62.0467 322.155 61.468C322.599 60.879 322.888 60.2383 323.023 59.546C323.178 59.0293 323.26 58.4558 323.271 57.8255C323.291 57.1848 323.302 56.694 323.302 56.353L324.263 56.7715C323.364 56.8955 322.48 57.0143 321.612 57.128C320.744 57.2417 319.923 57.3657 319.148 57.5C318.373 57.624 317.675 57.7738 317.055 57.9495C316.601 58.0942 316.172 58.2802 315.769 58.5075C315.376 58.7348 315.056 59.0293 314.808 59.391C314.57 59.7423 314.451 60.1815 314.451 60.7085C314.451 61.1632 314.565 61.5972 314.792 62.0105C315.03 62.4238 315.392 62.7597 315.877 63.018C316.373 63.2763 317.019 63.4055 317.815 63.4055ZM329.75 65.25V48.51H332.509V55.5625H341.313V48.51H344.072V65.25H341.313V58.182H332.509V65.25H329.75ZM352.862 65.715C351.612 65.715 350.563 65.4877 349.716 65.033C348.879 64.568 348.243 63.9583 347.809 63.204C347.386 62.4497 347.174 61.623 347.174 60.724C347.174 59.8457 347.339 59.0862 347.67 58.4455C348.011 57.7945 348.486 57.2572 349.096 56.8335C349.705 56.3995 350.434 56.0585 351.281 55.8105C352.077 55.5935 352.966 55.4075 353.947 55.2525C354.939 55.0872 355.942 54.9373 356.954 54.803C357.967 54.6687 358.912 54.5395 359.791 54.4155L358.799 54.989C358.83 53.501 358.53 52.4005 357.9 51.6875C357.28 50.9745 356.205 50.618 354.676 50.618C353.663 50.618 352.774 50.8505 352.01 51.3155C351.255 51.7702 350.723 52.5142 350.413 53.5475L347.794 52.757C348.197 51.2897 348.977 50.1375 350.134 49.3005C351.292 48.4635 352.816 48.045 354.707 48.045C356.226 48.045 357.528 48.3188 358.613 48.8665C359.708 49.4038 360.493 50.2202 360.969 51.3155C361.206 51.8322 361.356 52.3953 361.418 53.005C361.48 53.6043 361.511 54.2347 361.511 54.896V65.25H359.062V61.2355L359.636 61.6075C359.005 62.9612 358.122 63.9842 356.985 64.6765C355.859 65.3688 354.485 65.715 352.862 65.715ZM353.281 63.4055C354.273 63.4055 355.13 63.2298 355.854 62.8785C356.587 62.5168 357.176 62.0467 357.621 61.468C358.065 60.879 358.354 60.2383 358.489 59.546C358.644 59.0293 358.726 58.4558 358.737 57.8255C358.757 57.1848 358.768 56.694 358.768 56.353L359.729 56.7715C358.83 56.8955 357.946 57.0143 357.078 57.128C356.21 57.2417 355.389 57.3657 354.614 57.5C353.839 57.624 353.141 57.7738 352.521 57.9495C352.067 58.0942 351.638 58.2802 351.235 58.5075C350.842 58.7348 350.522 59.0293 350.274 59.391C350.036 59.7423 349.917 60.1815 349.917 60.7085C349.917 61.1632 350.031 61.5972 350.258 62.0105C350.496 62.4238 350.858 62.7597 351.343 63.018C351.839 63.2763 352.485 63.4055 353.281 63.4055ZM363.681 65.25V62.8785C364.301 62.9922 364.771 62.9715 365.092 62.8165C365.422 62.6512 365.665 62.367 365.82 61.964C365.986 61.5507 366.12 61.034 366.223 60.414C366.399 59.4323 366.549 58.337 366.673 57.128C366.807 55.919 366.926 54.5963 367.029 53.16C367.143 51.7133 367.246 50.1633 367.339 48.51H379.042V65.25H376.283V51.1295H369.85C369.788 52.0802 369.711 53.0567 369.618 54.059C369.535 55.0613 369.447 56.0378 369.354 56.9885C369.261 57.9288 369.158 58.8072 369.044 59.6235C368.941 60.4295 368.827 61.127 368.703 61.716C368.507 62.7287 368.233 63.5398 367.882 64.1495C367.53 64.7488 367.024 65.1363 366.363 65.312C365.701 65.498 364.808 65.4773 363.681 65.25ZM396.787 48.51V65.25H394.121V52.912L385.348 65.25H383.07V48.51H385.736V60.6775L394.524 48.51H396.787ZM405.251 65.25V51.021H399.423V48.51H413.838V51.021H408.01V65.25H405.251ZM430.164 48.51V65.25H427.498V52.912L418.725 65.25H416.447V48.51H419.113V60.6775L427.901 48.51H430.164ZM434.18 65.25L434.195 48.51H436.985V56.57L444.007 48.51H447.587L440.194 56.88L448.455 65.25H444.596L436.985 57.19V65.25H434.18ZM463.39 48.51V65.25H460.724V52.912L451.951 65.25H449.673V48.51H452.339V60.6775L461.127 48.51H463.39Z" fill="black"/>
</svg>
