<svg width="32" height="32" viewBox="0 0 32 32" fill="none" xmlns="http://www.w3.org/2000/svg">
<path d="M15.2881 24.5205H13.9082L13.1279 22.2998H9.64844L8.87988 24.5205H7.5L10.5723 16H12.2158L15.2881 24.5205ZM18.8877 16C19.8637 16 20.624 16.236 21.168 16.708C21.7118 17.172 21.9834 17.8204 21.9834 18.6523C21.9834 19.2042 21.8593 19.6839 21.6113 20.0918C21.3634 20.4917 21.0077 20.7996 20.5439 21.0156C20.088 21.2236 19.5357 21.3281 18.8877 21.3281H17.0039V24.5205H15.708V16H18.8877ZM24.0557 24.5205H22.7598V16H24.0557V24.5205ZM17 4.625C21.1106 4.625 24.6076 7.61476 25.2656 11.6309C25.5271 11.6182 25.7989 11.626 26.0479 11.6582C28.5121 11.9322 30.375 14.0137 30.375 16.5C30.375 18.9864 28.5115 21.0679 26.041 21.3428C25.9565 21.3534 25.7733 21.3603 25.583 21.3652C25.5564 21.3716 25.5286 21.375 25.5 21.375H25C24.793 21.375 24.625 21.207 24.625 21C24.625 20.7188 24.7793 20.5 25 20.5C25.2206 20.5 25.8288 20.4882 25.9521 20.4727C28.0485 20.2397 29.5 18.6035 29.5 16.5C29.5 14.3965 27.851 12.8091 25.7607 12.5771C25.4444 12.5366 25.1108 12.5327 24.8047 12.584C24.6959 12.6025 24.5842 12.5713 24.5 12.5C24.4158 12.4287 24.3672 12.3243 24.3672 12.2139C23.8982 8.41708 20.8425 5.5 17 5.5C14.2798 5.5 12.1726 6.96042 10.8252 9.31152C10.7583 9.42766 10.6345 9.5 10.5 9.5H8C4.8984 9.5 2.5 11.8984 2.5 15C2.5 18.1016 4.8984 20.5 8 20.5C8.5 20.5 8.5 20.793 8.5 21C8.5 21.207 8.207 21.375 8 21.375C4.4849 21.375 1.625 18.5151 1.625 15C1.625 11.4849 4.4849 8.625 8 8.625H9.86621C11.3718 6.1523 14.085 4.625 17 4.625ZM10.0557 21.124H12.7324L11.3877 17.2363L10.0557 21.124ZM17.0039 20.1523H18.8516C19.4355 20.1523 19.8796 20.0282 20.1836 19.7803C20.4875 19.5243 20.6396 19.1482 20.6396 18.6523C20.6396 18.1643 20.4876 17.7996 20.1836 17.5596C19.8796 17.3117 19.4354 17.1885 18.8516 17.1885H17.0039V20.1523Z" fill="#282828"/>
</svg>
