<?xml version="1.0" standalone="no"?>
<!DOCTYPE svg PUBLIC "-//W3C//DTD SVG 20010904//EN"
 "http://www.w3.org/TR/2001/REC-SVG-20010904/DTD/svg10.dtd">
<svg version="1.0" xmlns="http://www.w3.org/2000/svg"
 width="512.000000pt" height="512.000000pt" viewBox="0 0 512.000000 512.000000"
 preserveAspectRatio="xMidYMid meet">

<g transform="translate(0.000000,512.000000) scale(0.100000,-0.100000)"
fill="#000000" stroke="none">
<path d="M1247 3137 l-758 -752 1 -582 0 -583 943 0 942 0 185 185 c102 102
188 185 192 185 5 0 8 -83 8 -185 l0 -185 193 0 192 0 748 748 747 747 0 588
0 587 -187 0 -188 0 -182 -182 -183 -183 0 183 0 182 -947 0 -948 -1 -758
-752z m903 -1107 c36 -6 86 -18 113 -26 l47 -16 0 -90 c0 -76 -2 -89 -15 -84
-8 3 -54 13 -102 22 -122 23 -314 17 -362 -11 -56 -33 -76 -68 -76 -135 0 -67
20 -102 75 -135 63 -36 318 -31 458 11 22 6 22 5 22 -84 l0 -91 -51 -15 c-86
-26 -218 -39 -334 -33 -170 8 -254 47 -317 146 l-28 45 0 -92 0 -92 -90 0 -90
0 -2 200 -3 200 -105 -200 -105 -200 -96 0 -97 0 -103 198 -104 197 -3 -197
-2 -198 -95 0 -95 0 0 340 0 340 131 0 130 0 115 -235 c63 -130 118 -234 122
-231 4 2 59 108 122 235 l115 231 127 0 128 0 0 -92 1 -93 19 36 c38 72 122
130 214 149 60 12 261 11 336 0z"/>
</g>
</svg>
